<svg version="1" xmlns="http://www.w3.org/2000/svg" width="933.333" height="933.333" viewBox="0 0 700.000000 700.000000"><path d="M203.5 52c-.3.5-.6 5.8-.5 11.7.1 6 .1 15.9.1 22L203 97h-2.9c-5.8 0-8 3.3-11.7 18-1.8 7.4-3.6 14.5-3.8 15.6-.2 1.2-.9 3-1.5 4-.5 1.1-1.5 4.1-2.1 6.9-.6 2.7-1.5 6.8-2 9s-1.2 5.1-1.5 6.5c-3.2 14.3-7.9 45.2-9.1 60.7-3 36.4 1.4 51.5 24.5 82.8 12.4 16.9 32.3 40.2 48.5 56.8 7.5 7.7 6.5 4.8 14.2 41.2.8 4.1 1.3 6.2 3.8 17.7 1.4 6.4 2.8 12.9 3 14.5.3 1.5 1 4.8 1.6 7.3.6 2.5 3.1 13.4 5.5 24.3s4.5 20.1 4.8 20.3c.6.7 10.9 3.1 16.7 3.9 2.4.4 4.7.8 5 1 .4.2 3.6.7 13.3 2 1.5.2 4.7.7 7 1 12.3 1.9 19.9 2.3 37.2 2 10.5-.2 20.1-.5 21.5-.8 1.4-.2 7.7-1.2 14-2.1 6.3-.9 12.6-1.8 14-2.1 22.7-4.4 21.7-4.1 22.4-7.3.4-1.5.9-3.8 1.2-5.2.3-1.4 1-4.5 1.5-7 1.4-6.6 1.4-6.6 6.8-31.5 2.8-12.7 7.5-34.1 10.4-47.6 4.8-22.4 5.6-24.9 8.3-27.7 7.7-7.8 17.6-18.4 23.9-25.7 3.9-4.4 7.2-8.2 7.5-8.5.3-.3 2.2-2.6 4.3-5.2 2.1-2.6 4.3-5.3 5-6 3-3.2 18-24.1 22.4-31.3 6.3-10.2 9.9-17.8 12-25.7 2.8-9.9 2.4-45.6-.7-63-.5-2.9-1.2-7.1-1.5-9.3-2.2-15.4-6.7-36.5-12.1-57.5-7.4-29-7.3-28.6-10.8-30.5-3.2-1.7-6.9-1.7-10.8 0-1.7.7-1.8-.8-1.8-23.4V51H347.6c-93.9 0-143.7.3-144.1 1zm187 19.4c5.2 1.6 12.4 6.4 16 10.8 6.3 7.7 8.9 17.2 8.8 31.3-.2 25.2-13.1 40.4-35.5 41.8-25.2 1.6-41.1-14.2-41.7-41.5-.5-19.3 6.6-33.6 20-40.4 8.4-4.2 21.7-5 32.4-2zm-88.6.5c6.2 1.9 11.1 5 15.6 9.9 2.7 2.9 6.9 12.8 6.2 14.6-.4.9-5.6 1.2-14.8.7-.9-.1-2-1.1-2.3-2.4-1.6-6-9.4-10.7-17.5-10.7-13.9 0-22 9.9-22.5 27.5-.6 18.8 7.2 28.9 22.4 29 4.8 0 7.4-.5 9.9-2 4.5-2.6 8.9-8.2 9.7-12.3l.7-3.2h-18.8v-6.5c0-3.6.2-6.5.5-6.6 1.5-.3 31.6-.5 32.5-.2.6.2 1 8.1.9 21.6-.1 11.6-.2 21.4-.3 21.7-.1.6-10.2.2-10.8-.4-.2-.2-.6-2.1-.9-4.2-.3-2.1-.6-4-.8-4.2-.3-.2-2.1 1.2-4.3 3.1-5.1 4.6-9 6.5-15.4 7.5-28.2 4.2-48.4-21.5-41.8-53 2.2-10.5 9.2-21.3 17.1-26.3 8.5-5.4 23.9-7 34.7-3.6zm147.7 14.8c-.2 8.2-.7 15.9-.9 17.3-.3 1.4-.8 5.2-1.2 8.5-1.8 18.5-1.7 18.3-6.4 18.3l-3.9.1-.6-5.7c-.4-3.2-.8-6.8-1-8.2-.3-1.4-.7-5-1.1-8-.3-3-.8-7.8-1.1-10.5-.5-4.2-.8-21.2-.5-25.3.1-.8 2.5-1.2 8.6-1.2h8.6l-.5 14.7zm42.1 36.5c-.3.8-.6.5-.6-.6-.1-1.1.2-1.7.5-1.3.3.3.4 1.2.1 1.9zM449.5 145c.1 5.1-.3 7.7-1.1 8-.7.3-4.5.4-8.3.2l-7.1-.4V137l8.2.3 8.2.2.1 7.5zm39.1 47.4c-1 17-2.6 26.4-6.3 37.4-5.1 15.3-11 24.4-20.8 31.8-10.6 8.1-48.9 28.7-71.5 38.4-4.1 1.8-10.9 4.8-15 6.7-4.1 1.9-11.6 5.2-16.7 7.4l-9.1 3.9-23.9-10.6C277 286 242 267.1 231.9 257c-6-6-11.4-15.4-15.1-26.4-1.6-4.9-3.1-9.6-3.3-10.5-.1-.9-.6-3.6-1-6.1-.4-2.5-.9-5.4-1.1-6.5-.3-1.1-.7-7-1-13.1l-.6-11.2H489.1l-.5 9.2z"/><path d="M368.4 85.4c-4.1 1.8-7.9 5.8-10.6 10.9-2 3.6-2.3 5.8-2.3 15.7 0 9.7.3 12.2 2.1 16 3.8 8.1 8.5 11.6 16.7 12.6 15.7 1.8 25-9.9 24.2-30.6-.4-9.8-3.8-17.7-9.7-22.3-3.1-2.5-4.8-3-10.5-3.4-4.5-.2-7.9.1-9.9 1.1zM336.7 200.1c-8.1 2.3-11.6 4-17.7 8.6-16.6 12.6-23.9 35.6-17.5 54.8 7.3 21.7 27.4 35.9 49.6 35 22.5-.9 41.1-16 46.8-37.9 4.3-16.5-.9-35.5-13-47.5-12.5-12.4-31.8-17.6-48.2-13zM109.9 96.8c-6.3 4-16.1 13.4-21.4 20.4-13.8 18.4-20.6 46.7-14.6 60.4 2.1 4.7 2.1 5 .5 11.3-1.8 7.2-2.3 9.4-3 13.1-.2 1.4-1.1 5.9-1.9 10-1.3 6.6-3.4 21.9-4.9 35-1.8 15.7-2.4 54.5-1.2 69.5C65.6 342.1 68 359 72 377c1 4.7 2.1 9.6 2.4 11 1.8 9.5 10.8 38.5 17.1 55 1.8 4.7 2.2 5.6 7.5 18 9.8 22.7 22.5 45.5 39.7 71 3.1 4.6 14.8 20.5 16.9 23 1.2 1.4 5.5 6.5 9.7 11.5 28.3 34 69.4 68.4 108.5 91.1 7.3 4.2 9.1 4.8 14 4.8 9.9 0 14.3-5.5 10.9-13.5-2.2-5.3-5.8-8.2-22.1-18-31.2-18.6-53.9-36.3-79.1-61.4-18.7-18.6-26.9-28-40.6-46.5-7.8-10.5-18.7-26.8-22.5-33.5-.6-1.1-2.3-4.3-3.9-7-1.5-2.8-3.1-5.5-3.5-6-.4-.6-3.3-6.2-6.4-12.5-3.2-6.3-6.1-12.3-6.6-13.2-7-12.8-24-62.4-27.4-79.8-.3-1.4-1.2-5.4-1.9-9-1.3-5.7-3.9-19.7-4.2-22.5-.2-2.1-1.7-13.1-2-15.3-1.3-8.2-2-24.1-2-45.7 0-22.4.3-29.4 2-47 .7-6.8 2.3-18 3-20.5.2-.8.7-3.5 1-6 .4-2.5 1.3-7.1 2-10.3 1.6-6.9 1.5-6.3 1.5-8.5 0-.9 1.7-2.7 3.9-3.9 4.3-2.5 8.6-8.4 13.6-18.8 4.3-8.9 9-23.4 10-30.5.4-3 .9-6.4 1.2-7.5.5-2.6.6-30.5.1-31.1-.3-.2-2.4.9-4.9 2.4zM584.8 99.7c-.5 21.6.8 33.9 5.2 47.4 5.8 17.7 13.2 30.8 19.8 35.2 4.2 2.7 4.1 2.5 8.3 26.7 2.4 14.3 3.1 19.7 4.6 34 1.4 15.2.7 70-1.1 79.5-.2 1.1-.7 4.7-1 8-.4 3.3-1.3 9.6-2.1 14s-1.7 9.6-2 11.5c-.3 1.9-1.5 7.3-2.6 12s-2.2 9.2-2.4 10c-.2.8-1 4.2-1.9 7.5-.9 3.3-1.8 6.7-2 7.5-3.5 14-15.5 44.8-25.6 65.5-7.8 16-18.8 35.7-20.2 36.3-.4.2-.8.8-.8 1.4 0 2.1-18.4 28-30.1 42.4-10.1 12.3-12.5 14.9-27.9 30.4-25.4 25.5-53.1 46.7-85 65-9.8 5.7-12 7.4-15.3 12.2-4.6 6.8-3.3 12.4 3.4 15.2 7.1 2.8 12.1 1.1 30.7-10.5 57.1-35.6 109.5-89.7 142.4-146.9 6.8-11.9 22.5-44.3 27.6-57 9.4-23.4 19.3-57.3 22.6-77 .3-1.9.7-4.4 1-5.5.2-1.1.7-4 1.1-6.5.4-2.5.9-5.2 1-6 .1-.8.6-4 1-7s.9-6.2 1-7c.3-1.7 1.6-16.6 2.1-24.5.4-6.9.4-45.9-.1-51.9-1.2-16.4-4.5-43.2-6-48.6-.2-.8-.6-3.1-.9-5-.3-1.9-1.7-8.6-3.1-14.9l-2.6-11.3 2.2-4.4c5.3-11.1.4-36.3-10.9-54.9-4.1-6.8-17.4-20.6-24.4-25.3-2.6-1.8-4.9-3.2-5.2-3.2-.3 0-.7 2.6-.8 5.7zM20.9 183.7c0 1-.2 2.7-.5 3.8-1.6 8-2.2 24.7-1.2 33.4 1.4 12.8 2.7 17.1 7.4 25.6 11.3 20.5 24.6 24 32.5 8.5 3.1-6.2 3.5-19 .7-29.2-5.8-21.6-14.4-33.6-29.4-40.8-7.1-3.4-9.4-3.7-9.5-1.3zM669.1 185c-8.7 4.2-18.6 14.3-22.5 23-4.3 9.8-4.4 10-6.5 17.6-2.7 10.2-2.3 24.4.9 29.9 7 12 16.3 12.2 25.8.4 9.8-12 14.3-25.9 14.4-43.9.1-17.6-1.6-29.3-4.3-29.8-.8-.1-4.3 1.1-7.8 2.8z"/><path d="M115.5 206.5c-8.1 2-13.8 5.1-19.5 10.7-15.4 15.1-20.2 33.5-11.7 44.9 3.9 5.3 11.6 5.9 18.7 1.4 9.8-6.2 19.5-18.3 25-31.4 4-9.3 8.2-24.3 7.2-25.3-1.4-1.4-14.3-1.6-19.7-.3zM570.8 205.6c-.2.2-1.8.4-3.6.6-3.1.2-3.2.4-2.6 3.8 1.1 6.1 6.5 21.2 9.7 27.5 9.7 18.6 26.6 32.1 35.9 28.6 10-3.8 12.4-19 5.3-33.6-5.6-11.3-18.4-22.8-28.6-25.5-3.9-1.1-15.5-2.1-16.1-1.4zM.9 270.6c-.7 23.3 5.9 50.8 15.9 65.3 4.9 7.2 14.9 16.6 20.8 19.6 14 7.1 24.8-2.8 23.9-21.9-.5-10.6-6.4-25.1-15.6-38.8-10-14.6-24.6-24.4-39.8-26.4-5.1-.7-5.1-.7-5.2 2.2zM691.5 268.7c-10 2.1-21.7 8.4-29 15.6-7.7 7.6-17 23.3-21.7 36.7-4.3 12.3-2.5 26.7 4.1 33.4 2.8 2.8 3.7 3.1 9 3.1 5.2-.1 6.6-.5 11.6-3.9 13.9-9.6 23.1-23.2 28.6-42.5 2.9-9.9 4.6-22 4.8-34.4l.2-8.7-2.8.1c-1.5.1-3.7.3-4.8.6zM123.3 273.6c-6.9 1.4-14.9 5.1-20.7 9.5-12.1 9.3-21.6 30.9-20 45.6 1.5 13.8 11 22.5 21.4 19.4 8.1-2.4 20.6-17.8 26.2-32.1 3.4-8.6 6.5-23.4 7.3-34.7l.6-9.2-4.5.2c-2.5 0-7.1.6-10.3 1.3zM562.4 280.8c2.1 27.7 10.5 48.7 25 62 7.8 7.2 16.4 8 22.6 1.9 10.9-10.6 9.9-30.4-2.6-50.2-8.1-12.8-21.9-20.6-38.8-21.9l-6.9-.5.7 8.7zM142.3 346.5c-14.4 4.6-27.4 14.8-33 26-11.1 22.2-10.2 46 2.2 57.4 12.9 11.8 25.9 4.9 35.6-18.9 4.2-10.5 6.2-21.7 6.2-35 0-11-.2-13.7-1.8-25.8-.8-5.9-1.5-6.1-9.2-3.7zM548.7 348.7c-1.6 9.8-2.1 17.7-2 27.9.1 9.6.6 14.2 2.9 25 .7 3.6 5.9 15.9 8.7 20.7 8.7 14.8 21.7 17.4 31.5 6.2 5.2-5.8 6.4-8.7 8.1-18.9 2.1-12.2-2.9-32.1-10.6-42.8-3-4.1-5.8-6.9-11.9-11.8-4.5-3.6-20.1-10-24.5-10-1.1 0-1.8 1.2-2.2 3.7zM683 371.1c-15.8 1.7-28 7.9-41.1 20.9-18.2 18.1-26.1 32.5-26 47.3 0 6.9 3 14 7.4 17.1 10.7 7.8 38.3-6.7 52.6-27.6 7.7-11.2 15.2-28.1 19.6-44.2 3.6-13 3.5-13.3-2.3-13.8-2.6-.1-7.2 0-10.2.3zM2.4 371.6c-2.4 1 4.9 24.8 12.3 40.4 8.2 17.2 15.9 27 27.9 35.6 14.2 10.1 27.5 13.6 34.1 8.8 4.5-3.2 7.4-10.1 7.4-17.5.1-10.9-4.9-22.2-15.7-35.7-17.6-22-35.7-32.2-56.9-32.1-4.4 0-8.5.3-9.1.5zM179.3 419.9c-25 13.8-35.8 33-34.7 61.6.7 21.1 10.1 38.2 23.7 43.4 16.4 6.1 27.5-4.4 31.5-29.9.9-5.6.8-28-.1-34.1-1.8-12.1-11.8-42.8-14.2-43.6-.5-.1-3.4 1-6.2 2.6zM512.1 421.2c-3.3 7.7-9 25.7-10.8 33.6-1.1 5.1-1.7 12.5-1.7 22.2-.1 15.3.4 20.3 3 29.1 4.3 14.3 10.9 20.8 21 20.4 14.1-.5 26.1-13.6 30.3-32.7 2-9.3 2.1-24.5.1-33.1-3.4-14.9-14.8-29.7-29.9-38.7-4.6-2.7-8.8-5-9.3-5s-1.7 1.9-2.7 4.2zM40.5 483.2c-6.6.9-15.2 3.5-16 4.8-1.3 2 11 23.4 21.5 37.5 14.4 19.4 30.1 32.3 47.2 38.9 11.4 4.4 17.4 5.7 25.8 5.8 14.2.1 21.4-7.2 20.3-20.8-1.4-19.5-19.3-39.6-50.3-56.7-5.8-3.2-19.7-9-21-8.8-.3.1-1.8-.1-3.5-.4-5.5-1-17.9-1.1-24-.3zM231.7 488.7c-11 11-16.9 20.5-20.7 33.1-7.5 24.8 3.9 61.1 23.9 76.2 12.5 9.4 29.8 10.9 37.6 3.2 5.4-5.3 7-10.5 7.2-23.7.2-18.7-3.7-34.8-13.6-55.1-7-14.4-24-40.2-26.6-40.3-.6-.1-4.1 2.9-7.8 6.6zM451.1 493.9c-21 29.6-31 56.3-31.2 82.6-.1 15.3 4.6 25.1 13.6 28.5 4.2 1.6 16.4 1.4 18.1-.3.4-.4 1.6-.7 2.6-.7 3 0 13.1-7.4 18.6-13.6 6.2-6.9 11.1-16.1 14.6-27.1 7.1-22.7 5-41.4-6.6-59.3-4.7-7.4-18.2-22-20.3-22-.5 0-4.8 5.4-9.4 11.9zM638.1 483.3c-12.7 1.6-23 6.2-41.6 18.5-12.3 8.2-25.8 21.5-30.2 29.8-9.8 18.4-7.1 33.8 6.6 37.8 11.4 3.3 34.3-2.8 50.7-13.5 17-11.1 37.3-36.2 49.7-61.3 3.5-7.2 3.2-7.5-7.4-10.1-7.9-2-18.5-2.4-27.8-1.2zM120.9 591.5c-.2.1-2 .5-3.9.8-9.7 1.4-27.8 8.5-33.9 13.5l-2.3 1.9 5.9 6.9c7.8 9 22.6 22.6 34.2 31.4 20.4 15.5 41.3 25.2 59.1 27.5 8.5 1.1 23.5 1.3 29.8.4 12.6-1.8 22.3-8.5 23.8-16.3 2.1-11.7-6.2-27-20.9-38.3-13-10.1-40-21.3-63-26.2-7.4-1.6-27.7-2.8-28.8-1.6zM550.5 593c-32.8 7.5-60.6 20.9-73 35.2-8.2 9.6-12.3 20-11 28.4 1.2 8.5 10.8 15.7 22.9 17.2 10.2 1.3 30.5.4 37.4-1.7 1.7-.5 3.2-.8 3.2-.6 0 .2 3-.7 6.8-1.9 21.5-7.4 43.8-22.4 66.8-45.1 15.8-15.6 16.3-16.4 12.5-19.3-4.5-3.3-17-8.8-25.6-11.3-10.9-3.1-28.7-3.5-40-.9z"/></svg>
